<svg xmlns="http://www.w3.org/2000/svg" data-name="Layer 1" viewBox="0 0 100 100"><defs><style>
      .cls-1 {
        stroke-width: 2px;
        stroke: currentColor;
        fill: currentColor;
      }
    </style></defs><path class="cls-1" d="m42.23,72.98c1.3.47,2.64.8,4,.99.68.09,1.36.16,2.04.19.66.03,1.42.03,1.92.03.52,0,1.29,0,1.99-.05.71-.05,1.41-.15,2.12-.27,1.4-.26,2.77-.68,4.08-1.25,2.61-1.13,4.97-2.86,6.81-5.02.59-.68,2.25-1.32-.81-3.39-3.3-2.22-2.93-.8-3.39-.33-2.74,2.78-6.4,4.67-10.41,4.58h-.85s-.74-.05-.74-.05c-.48-.05-.96-.11-1.44-.22-.94-.21-1.85-.55-2.68-1.02-1.66-.92-2.99-2.4-3.64-4.1-.33-.79-.57-1.84-4.76.89-3.43,2.26-1.97,3.57-1.13,4.45,1.86,2.09,4.29,3.64,6.89,4.57Z"/><path class="cls-1" d="m37.94,43.32c-4.13-2.92-9.26,2.47-5.87,6.33,4.42,5.43,11.8-3.21,5.87-6.33Z"/><path class="cls-1" d="m67.28,43.32c-4.13-2.92-9.26,2.47-5.87,6.33,4.42,5.43,11.8-3.21,5.87-6.33Z"/><path class="cls-1" d="m10,82.4c1.06,2.6,2.83,4.9,4.9,6.72,1.06.92,2.25,1.72,3.51,2.39,1.27.65,2.58,1.13,3.9,1.51,2.63.71,5.2.96,7.64,1.11,2.45.15,4.8.19,7.13.28l7.02.24c8.74.32,21.41.7,21.12-4.3-.23-4.1-12.21-3.64-20.28-3.66l-13.68-.03c-2.21-.03-4.3-.15-6.17-.48-1.87-.35-3.45-.93-4.82-1.86-.68-.47-1.35-1.02-1.94-1.66-.61-.62-1.09-1.3-1.52-2.01-.84-1.42-1.35-3.13-1.65-5.07-.55-3.91-.39-8.61-.46-13.19l-.1-13.76c-.02-4.57-.14-9.06.93-12.53.55-1.72,1.39-3.18,2.63-4.48.61-.65,1.28-1.24,2-1.71.71-.5,1.48-.87,2.32-1.19,3.33-1.27,7.8-1.24,12.35-1.25h28.76c4.79.03,9.59-.16,13.33.88.94.25,1.79.6,2.58,1.04.8.42,1.53.96,2.21,1.59,1.41,1.28,2.43,2.76,3.08,4.5,1.32,3.49,1.22,8.2,1.24,12.97v14.38s-.01,7.14-.01,7.14c-.03,2.32-.14,4.56-.5,6.56-.37,2.01-1.02,3.72-2.07,5.2-1.08,1.48-2.52,2.81-4.1,3.62-1.06.56-2.38.96-3.86,1.2-1.48.24-3.08.36-4.57.53-3,.32-5.48.95-5.67,2.8-.21,1.97,2.1,2.74,5.34,2.87,1.62.06,3.49-.06,5.36-.41,1.87-.34,3.74-.94,5.28-1.66,1.21-.56,2.38-1.25,3.41-2.09,1.05-.82,1.99-1.75,2.82-2.79,1.71-2.06,2.85-4.61,3.43-7.12.6-2.53.76-5,.84-7.41.07-2.41.05-4.75.06-7.09l.02-14.06c0-2.34.02-4.69-.06-7.1-.07-2.41-.27-4.9-.89-7.44-.33-1.26-.77-2.53-1.36-3.74-.61-1.2-1.35-2.34-2.21-3.37-1.71-2.01-3.88-3.74-6.36-4.8-2.46-1.08-5.06-1.53-7.51-1.74-2.47-.21-4.86-.21-7.22-.21h-11.92c-.03-2.39-.49-4.77-.49-7.16,0-2.75.02-5.49-.02-8.24,0-.45.98-1.12-2.7-1.15-3.98-.03-2.86.67-2.91,1.1-.55,5.15.76,10.3-1.53,15.45h-8.56c-2.35,0-4.68-.02-7.08.02-2.39.04-4.86.16-7.39.65-1.26.25-2.53.62-3.78,1.12-1.24.51-2.43,1.19-3.53,1.96-2.15,1.6-3.98,3.61-5.25,6.03-1.27,2.4-1.89,5.03-2.19,7.51-.31,2.5-.35,4.91-.39,7.28l-.17,14.07-.1,7.03c-.03,2.35-.07,4.76.11,7.26.17,2.49.59,5.16,1.68,7.74Z"/></svg>